@startuml
state model {
    state S1  ##[bold]green
    state S2 
    state S3 
    state S4


    [*] -left-> S1
    S1 -up-> S2
    S1 -down-> S3
    S2 -down-> S4
    S3 -up-> S4
    S4 -left-> [*]
}

state "mirror model" as mirror#lightblue{
    state "S1" as MS1 ##[bold]green  : \t**S4->S1 ｜ context 3**\n\t**start->S1 | starting context**
    state "S2" as MS2 : \t**S1->S2 | context 1**
    state "S3" as MS3 : \t
    state "S4" as MS4 : \t**S2->S4 | context 2**
    MS2 -down[dashed]-> MS1
    MS4 -up[dashed]-> MS2
    MS1 -right[dashed]-> MS4
}

@enduml
